<svg version="1.1" xmlns="http://www.w3.org/2000/svg" viewBox="0 0 980 391.5" width="1960" height="783">
  <!-- svg-source:excalidraw -->
  
  <defs>
    <style>
      @font-face {
        font-family: "Virgil";
        src: url("https://excalidraw.com/Virgil.woff2");
      }
      @font-face {
        font-family: "Cascadia";
        src: url("https://excalidraw.com/Cascadia.woff2");
      }
    </style>
  </defs>
  <g stroke-linecap="round" transform="translate(418.5 308) rotate(0 69.5 34)"><path d="M-1.55 -1.23 C41.69 1.59, 87.11 2.58, 140.02 0.88 M-0.16 -0.8 C44.99 0.98, 90.55 0.51, 139.06 -0.5 M137.61 0.41 C139.31 20.33, 140.26 36.97, 140.78 66.79 M139.61 -0.43 C138.92 26.41, 138.7 51.79, 138.32 68.21 M139.17 66.98 C102.4 66.07, 68.07 68.56, -1.38 68.63 M139 67.4 C99.4 67.62, 58.91 67.94, 0.81 67.63 M0.55 67.76 C1.78 47.68, -0.56 24.49, 1.59 0.46 M0.06 68.55 C-1.14 48.81, -0.05 28.39, -0.77 0.03" stroke="#000000" stroke-width="1" fill="none"></path></g><g transform="translate(423.5 332) rotate(0 64.5 10)"><text x="64.5" y="14" font-family="Virgil, Segoe UI Emoji" font-size="16px" fill="#000000" text-anchor="middle" style="white-space: pre;" direction="ltr">funcionários</text></g><g stroke-linecap="round" transform="translate(413 12) rotate(0 69.5 34)"><path d="M0.36 0.81 C34.86 2.55, 71.27 1.57, 137.49 0.07 M-0.2 -0.61 C49.74 0.27, 100.92 0.24, 139.4 0.22 M138.02 1.12 C140.71 16.55, 140.43 35.56, 138.03 66.19 M138.83 -0.13 C138.55 16.56, 139.61 33.56, 139.88 67.14 M139.27 69.59 C103.57 68.81, 65.42 65.87, -1.4 66.29 M139.21 67.97 C99.14 67.3, 57.5 67.01, 0.04 67.45 M-1.86 68.98 C-1.04 47.31, -1.04 27.88, -1.52 -0.74 M0.54 68.49 C0.56 45.21, 0.14 20.58, -0.19 -0.35" stroke="#000000" stroke-width="1" fill="none"></path></g><g transform="translate(418 36) rotate(0 64.5 10)"><text x="64.5" y="14" font-family="Virgil, Segoe UI Emoji" font-size="16px" fill="#000000" text-anchor="middle" style="white-space: pre;" direction="ltr">Departamentos</text></g><g stroke-linecap="round" transform="translate(10 14) rotate(0 69.5 34)"><path d="M-0.43 -1.35 C28.25 1.69, 57.17 0.42, 137.6 -1.43 M0.11 0.34 C51.78 -0.19, 103.47 -0.74, 138.23 -0.02 M139.37 -1.04 C139.29 23.94, 137.16 51.84, 139.51 66.33 M138.73 0.24 C139.36 15.82, 139.13 31.38, 139.19 68.02 M139.46 69.55 C88.83 65.5, 37.01 64.83, -1.41 66.46 M139.11 68.64 C103.83 67.89, 67.2 67.66, -0.29 67.73 M0.37 66.62 C0.52 51.34, 2.12 31.79, 1.3 1.63 M-0.83 67.28 C0.26 46.66, 1.36 23.9, 0.21 0.9" stroke="#000000" stroke-width="1" fill="none"></path></g><g transform="translate(15 38) rotate(0 64.5 10)"><text x="64.5" y="14" font-family="Virgil, Segoe UI Emoji" font-size="16px" fill="#000000" text-anchor="middle" style="white-space: pre;" direction="ltr">Diretorias</text></g><g stroke-linecap="round" transform="translate(831 313) rotate(0 69.5 34)"><path d="M0.71 -1.41 C41.73 -1.48, 83.82 -0.25, 139.95 -0.86 M0.74 -0.11 C48.09 0.66, 97.56 0.38, 139.88 -0.46 M138.01 0.76 C140.68 13.19, 139.17 30.72, 140.82 67.55 M139.11 -0.43 C140.05 26.28, 140.21 53.34, 139.81 68.82 M139.81 66.49 C99.1 67.63, 63.57 70.01, -0.46 68.6 M138.06 68.18 C94.74 68.29, 50.59 69.09, 0.71 67.15 M-0.66 68.03 C-0.88 43.87, -0.87 19.64, -0.53 -0.2 M0.87 69 C0.6 48.71, 1.14 31.98, 0.78 -0.09" stroke="#000000" stroke-width="1" fill="none"></path></g><g transform="translate(836 337) rotate(0 64.5 10)"><text x="64.5" y="14" font-family="Virgil, Segoe UI Emoji" font-size="16px" fill="#000000" text-anchor="middle" style="white-space: pre;" direction="ltr">Chamados</text></g><g stroke-linecap="round"><g transform="translate(568.4837217833849 349.72849501831627) rotate(0 33.25151161312789 0.34038280175997215)"><path d="M-1.02 -0.77 C9.97 -0.41, 53.92 0.83, 65.26 1.04 M0.65 1.45 C12.07 1.56, 56.51 -0.8, 67.52 -0.72" stroke="#000000" stroke-width="1" fill="none"></path></g></g><g stroke-linecap="round" transform="translate(828 33) rotate(0 69.5 34)"><path d="M-1.26 1.88 C49.96 -1.09, 98.35 1.4, 137.74 1.57 M-0.11 0.88 C52.69 -0.46, 104.03 -1.66, 139.72 -0.72 M140.91 -1.92 C138 15.74, 138.98 34.42, 138.58 69.36 M139.92 -0.3 C139.33 26.77, 138.83 52.66, 139.47 67.48 M138.07 68.63 C91.86 68.41, 48.32 65.03, -1.88 67.73 M139.11 68.1 C86.02 67.07, 31.44 68.27, -0.28 67.62 M1.15 67.89 C0.26 39.98, -1.97 12.61, -1.66 -0.88 M-0.58 68.57 C-1.21 45.48, -0.98 24.3, 0.7 -0.4" stroke="#000000" stroke-width="1" fill="none"></path></g><g transform="translate(833 57) rotate(0 64.5 10)"><text x="64.5" y="14" font-family="Virgil, Segoe UI Emoji" font-size="16px" fill="#000000" text-anchor="middle" style="white-space: pre;" direction="ltr">Problemas</text></g><g stroke-linecap="round"><g transform="translate(904.8535156322098 305.5586970575514) rotate(0 -1.2583863089713532 -31.76501736771408)"><path d="M0.05 -1.16 C-0.25 -11.95, -1.35 -53.98, -1.62 -64.38 M-1.38 0.85 C-1.86 -9.78, -2.42 -51.87, -2.57 -62.93" stroke="#000000" stroke-width="1" fill="none"></path></g></g><g stroke-linecap="round"><g transform="translate(422.69046171832906 90.84230015002078) rotate(0 -0.7978843767264152 31.170508142925968)"><path d="M0.44 1.01 C0.16 11.51, -1.06 51.82, -1.37 61.85 M-0.79 0.49 C-1.21 10.78, -1.85 49.89, -2.03 60.24" stroke="#000000" stroke-width="1" fill="none"></path></g></g><g stroke-linecap="round"><g transform="translate(159.81878456532934 41.58403942917221) rotate(0 36.28579965925067 0.3063086359957481)"><path d="M0.33 -1.02 C12.5 -0.65, 61.43 1.22, 73.53 1.64 M-0.96 1.05 C11.02 1.12, 60.53 -0.58, 72.68 -0.27" stroke="#000000" stroke-width="1" fill="none"></path></g></g><g transform="translate(371 25) rotate(0 14 6)"><text x="0" y="10" font-family="Helvetica, Segoe UI Emoji" font-size="10.666666666666679px" fill="#000000" text-anchor="start" style="white-space: pre;" direction="ltr">(1, N)</text></g><g transform="translate(171.5 22) rotate(0 11.5 6)"><text x="0" y="10" font-family="Helvetica, Segoe UI Emoji" font-size="10.666666666666679px" fill="#000000" text-anchor="start" style="white-space: pre;" direction="ltr">(1,1)</text></g><g transform="translate(791 317) rotate(0 14 6)"><text x="0" y="10" font-family="Helvetica, Segoe UI Emoji" font-size="10.666666666666679px" fill="#000000" text-anchor="start" style="white-space: pre;" direction="ltr">(0, N)</text></g><g stroke-linecap="round" transform="translate(241.5 10) rotate(0 41 32.5)"><path d="M40.26 -0.57 C50.54 6.22, 56.39 15.22, 82.82 32.13 M42 -0.53 C57.86 12.37, 73.35 25.09, 82.78 32.51 M81.04 31.74 C71.36 42.84, 59.16 51.01, 42.22 63.98 M82.84 32.59 C73.09 40.16, 62.24 48.94, 42.54 64.13 M43.36 64.99 C30.84 55.62, 24.4 51.57, 1.77 34.41 M42.27 64.98 C33 56.62, 22.36 50.56, -0.39 33.88 M-0.09 33.24 C9.5 23.5, 20.52 17.31, 43.44 1.61 M0.03 32.79 C9 25.63, 17.34 18.95, 41.09 0.61" stroke="#000000" stroke-width="1" fill="none"></path></g><g transform="translate(246.5 32.5) rotate(0 36 10)"><text x="36" y="14" font-family="Virgil, Segoe UI Emoji" font-size="16px" fill="#000000" text-anchor="middle" style="white-space: pre;" direction="ltr">pertence</text></g><g stroke-linecap="round"><g transform="translate(336.65912261383744 45.290701985260114) rotate(0 33.73562890216766 0.6154736342137994)"><path d="M-0.72 0.23 C10.49 0.42, 56.63 0.26, 68.19 0.54 M1.1 -0.7 C12.07 -0.27, 56.09 1.78, 67.26 1.93" stroke="#000000" stroke-width="1" fill="none"></path></g></g><g stroke-linecap="round" transform="translate(379.5 164.5) rotate(0 41 32.5)"><path d="M42.17 0.15 C53.58 9.63, 68.02 19.99, 83.94 32.46 M42.48 0.9 C53.82 10.31, 65.92 19.81, 82.99 33.42 M83.3 34.65 C71.47 43.31, 62.35 51.16, 43.35 65.18 M81.56 32.19 C69.11 42.87, 54.93 53.31, 41.31 64.75 M42.08 66.98 C29.23 52.92, 13.51 41.02, -1.08 33.8 M41.39 65.24 C31.32 57.65, 22.44 49.09, -0.6 33.77 M1.57 32.68 C14.18 23.18, 26.49 9.89, 43.05 -0.11 M0.03 33.5 C11.4 24.06, 22.77 16.2, 41.61 0.66" stroke="#000000" stroke-width="1" fill="none"></path></g><g transform="translate(384.5 187) rotate(0 36 10)"><text x="36" y="14" font-family="Virgil, Segoe UI Emoji" font-size="16px" fill="#000000" text-anchor="middle" style="white-space: pre;" direction="ltr">possui</text></g><g stroke-linecap="round"><g transform="translate(424.1214013785956 230.90048851278544) rotate(0 0.5519960656575904 37.14969213695369)"><path d="M-0.43 -0.3 C-0.27 11.98, 0.6 61.78, 0.76 74.29 M1.54 -1.5 C1.58 10.92, 0.21 63.45, -0.1 75.8" stroke="#000000" stroke-width="1" fill="none"></path></g></g><g transform="translate(388.5 272) rotate(0 12.5 6)"><text x="0" y="10" font-family="Helvetica, Segoe UI Emoji" font-size="10.666666666666679px" fill="#000000" text-anchor="start" style="white-space: pre;" direction="ltr">(0,N)</text></g><g transform="translate(390 106) rotate(0 11.5 6)"><text x="0" y="10" font-family="Helvetica, Segoe UI Emoji" font-size="10.666666666666679px" fill="#000000" text-anchor="start" style="white-space: pre;" direction="ltr">(1,1)</text></g><g stroke-linecap="round" transform="translate(639.5 316.5) rotate(0 41 32.5)"><path d="M42.04 -1.84 C54.95 12.62, 70.7 23.16, 81.14 32.29 M42.42 -0.98 C53.48 10.38, 64.43 18.5, 82.26 32.98 M80.18 31.86 C72.33 41.28, 67.02 47.34, 40.33 63.44 M82.38 32.75 C70.47 42.98, 58.29 54.11, 42.89 65.97 M40.23 65.77 C29.5 54.78, 18.53 46.31, 0.5 33.77 M42.22 64.46 C32.87 58.35, 23.46 51.22, 0.34 32.16 M-1.95 32.08 C9.2 25.1, 15.36 18.58, 41.91 -1.49 M-0.2 32.99 C14.8 20.85, 27.67 10.31, 41.3 0.65" stroke="#000000" stroke-width="1" fill="none"></path></g><g transform="translate(644.5 339) rotate(0 36 10)"><text x="36" y="14" font-family="Virgil, Segoe UI Emoji" font-size="16px" fill="#000000" text-anchor="middle" style="white-space: pre;" direction="ltr">cria</text></g><g stroke-linecap="round"><g transform="translate(726.7220272527893 349.73339815449106) rotate(0 48.78708816449614 -2.0402041480768958)"><path d="M-0.72 0.06 C15.77 -0.82, 81.79 -3.35, 98.29 -4.15 M1.11 -0.95 C17.51 -1.11, 81.38 -2.15, 97.46 -2.61" stroke="#000000" stroke-width="1" fill="none"></path></g></g><g transform="translate(569.5 322) rotate(0 11.5 6)"><text x="0" y="10" font-family="Helvetica, Segoe UI Emoji" font-size="10.666666666666679px" fill="#000000" text-anchor="start" style="white-space: pre;" direction="ltr">(1,1)</text></g><g stroke-linecap="round" transform="translate(859.5 171.5) rotate(0 41 32.5)"><path d="M41.42 0.6 C52.46 9.82, 67.81 21.52, 81.27 32.78 M42.06 0.54 C54.18 10.77, 64.14 20.18, 82.81 33.66 M82.14 31.39 C70.02 45.07, 59.08 51.32, 40.07 63.24 M82.6 32.94 C72.9 41.48, 62.87 47.87, 41.89 64.6 M42.6 66.22 C33.05 57.01, 25.34 51.96, -0.89 32.59 M41.17 65.23 C25.9 54.13, 11.96 41.11, 0.98 32.49 M0.08 32.69 C7.57 26.2, 18.78 19.5, 42.18 -0.64 M-0.06 33.08 C12.79 24.39, 25.02 14.26, 42.96 0.32" stroke="#000000" stroke-width="1" fill="none"></path></g><g transform="translate(864.5 194) rotate(0 36 10)"><text x="36" y="14" font-family="Virgil, Segoe UI Emoji" font-size="16px" fill="#000000" text-anchor="middle" style="white-space: pre;" direction="ltr">pertence</text></g><g stroke-linecap="round"><g transform="translate(900.8592784576526 170.0970368944424) rotate(0 2.1289637444067466 -27.568314893965066)"><path d="M1.16 -0.68 C1.26 -10.17, 1.57 -47.61, 1.56 -56.72 M0.31 1.58 C0.72 -7.75, 3.43 -45.54, 3.95 -55.32" stroke="#000000" stroke-width="1" fill="none"></path></g></g><g transform="translate(915.5 109) rotate(0 11.5 6)"><text x="0" y="10" font-family="Helvetica, Segoe UI Emoji" font-size="10.666666666666679px" fill="#000000" text-anchor="start" style="white-space: pre;" direction="ltr">(1,1)</text></g><g transform="translate(910 291) rotate(0 14 6)"><text x="0" y="10" font-family="Helvetica, Segoe UI Emoji" font-size="10.666666666666679px" fill="#000000" text-anchor="start" style="white-space: pre;" direction="ltr">(0, N)</text></g><g stroke-linecap="round" transform="translate(504.5 163.5) rotate(0 41 32.5)"><path d="M40.38 1.35 C56.46 10.94, 75.27 23.96, 83.28 31.74 M42.09 -0.33 C51.39 7.7, 61.11 14.27, 81.38 32.42 M82.01 33.28 C74.1 41.48, 62.26 47.99, 42.77 63.53 M82.5 33.61 C73.66 40.86, 64.88 48.41, 41.75 64.35 M40.15 63.49 C23.78 51.68, 9.48 40.07, 0.01 34.07 M42.91 64.76 C28.74 55.36, 16.6 45.13, -0.62 32.35 M1.32 34.94 C13.43 21, 25.93 13.84, 42.95 1.3 M0.87 33.36 C9.44 24.93, 18.6 18.3, 41.56 -0.55" stroke="#000000" stroke-width="1" fill="none"></path></g><g transform="translate(509.5 186) rotate(0 36 10)"><text x="36" y="14" font-family="Virgil, Segoe UI Emoji" font-size="16px" fill="#000000" text-anchor="middle" style="white-space: pre;" direction="ltr">gerencia</text></g><g stroke-linecap="round"><g transform="translate(541.1992701315835 88.97891781976591) rotate(0 1.0179984644390174 35.428442470272046)"><path d="M0.57 -0.26 C0.89 11.64, 2.22 59.05, 2.63 70.93 M-0.59 -1.44 C-0.45 10.67, 1.35 60.01, 1.9 72.29" stroke="#000000" stroke-width="1" fill="none"></path></g></g><g stroke-linecap="round"><g transform="translate(548.7047104523039 228.06969472750188) rotate(0 -0.3259438183300176 32.93808755200024)"><path d="M0.37 0.17 C0.3 11.19, 0.06 55.79, 0.18 66.66 M-0.9 -0.78 C-1.16 9.82, -0.97 53.54, -0.65 64.7" stroke="#000000" stroke-width="1" fill="none"></path></g></g><g transform="translate(548 106) rotate(0 11.5 6)"><text x="0" y="10" font-family="Helvetica, Segoe UI Emoji" font-size="10.666666666666679px" fill="#000000" text-anchor="start" style="white-space: pre;" direction="ltr">(0,1)</text></g><g transform="translate(554.5 273) rotate(0 11.5 6)"><text x="0" y="10" font-family="Helvetica, Segoe UI Emoji" font-size="10.666666666666679px" fill="#000000" text-anchor="start" style="white-space: pre;" direction="ltr">(1,1)</text></g><g stroke-linecap="round" transform="translate(21.5 305.5) rotate(0 41 32.5)"><path d="M40.96 -0.98 C54.2 11.23, 68.73 22.54, 80.27 33.2 M42.95 -0.38 C53.16 9.14, 64.86 19.54, 82.24 33.07 M81.16 32.17 C70.42 40.59, 59.27 50.15, 43.24 63.73 M82.73 33.46 C68.23 44.35, 52.95 55.64, 42.07 64.52 M42.71 63.79 C29.78 55.65, 21.55 49.09, -0.01 34.11 M41.75 65.11 C29.16 55.39, 15.67 45.15, 0.05 33.17 M0.46 32.86 C10.27 28.39, 18.56 21.45, 43.26 0.81 M0.03 32.41 C13.95 21.38, 28.83 10.97, 42.24 -0.11" stroke="#000000" stroke-width="1" fill="none"></path></g><g transform="translate(26.5 328) rotate(0 36 10)"><text x="36" y="14" font-family="Virgil, Segoe UI Emoji" font-size="16px" fill="#000000" text-anchor="middle" style="white-space: pre;" direction="ltr">gerencia</text></g><g stroke-linecap="round"><g transform="translate(111.56890515926148 335.28261883226253) rotate(358.20590325582197 147.19261797906125 5.166349151191753)"><path d="M0.55 -1.19 C88.02 3.83, 174.39 6.27, 294.26 11.53 M0.12 0.52 C101.63 4.67, 201.74 8.86, 293.24 10.67" stroke="#000000" stroke-width="1" fill="none"></path></g></g><g stroke-linecap="round"><g transform="translate(68.02227136196296 97.71811155394295) rotate(358.20590325582197 -3.863091826431912 99.93845832057985)"><path d="M0.33 0.32 C-0.95 41.84, -3.73 81.34, -7.85 199.23 M0.37 -0.26 C-0.57 50.99, -1.73 101.58, -8.1 200.13" stroke="#000000" stroke-width="1" fill="none"></path></g></g><g transform="translate(368 351) rotate(0 11.5 6)"><text x="0" y="10" font-family="Helvetica, Segoe UI Emoji" font-size="10.666666666666679px" fill="#000000" text-anchor="start" style="white-space: pre;" direction="ltr">(1,1)</text></g><g transform="translate(77 99) rotate(0 26.5 6)"><text x="0" y="10" font-family="Helvetica, Segoe UI Emoji" font-size="10.666666666666679px" fill="#000000" text-anchor="start" style="white-space: pre;" direction="ltr">(0,          1)</text></g></svg>